<mxfile host="app.diagrams.net" modified="2022-12-23T07:35:11.152Z" agent="5.0 (Windows NT 10.0; Win64; x64) AppleWebKit/537.36 (KHTML, like Gecko) Chrome/108.0.0.0 Safari/537.36 Edg/108.0.1462.54" etag="WbWKT6_HvqusRyFYoUMp" version="20.6.2" type="github">
  <diagram id="NUW-cSAKqMsx17pNtVwf" name="第 1 页">
    <mxGraphModel dx="1038" dy="579" grid="1" gridSize="10" guides="1" tooltips="1" connect="1" arrows="1" fold="1" page="1" pageScale="1" pageWidth="827" pageHeight="1169" math="0" shadow="0">
      <root>
        <mxCell id="0" />
        <mxCell id="1" parent="0" />
        <mxCell id="EasPy3BFHtWuuKrXQRq3-7" style="edgeStyle=orthogonalEdgeStyle;rounded=0;orthogonalLoop=1;jettySize=auto;html=1;" parent="1" source="EasPy3BFHtWuuKrXQRq3-2" target="EasPy3BFHtWuuKrXQRq3-5" edge="1">
          <mxGeometry relative="1" as="geometry" />
        </mxCell>
        <mxCell id="EasPy3BFHtWuuKrXQRq3-2" value="支付宝盒" style="rounded=0;whiteSpace=wrap;html=1;" parent="1" vertex="1">
          <mxGeometry x="230" y="100" width="120" height="60" as="geometry" />
        </mxCell>
        <mxCell id="EasPy3BFHtWuuKrXQRq3-4" value="" style="edgeStyle=orthogonalEdgeStyle;rounded=0;orthogonalLoop=1;jettySize=auto;html=1;" parent="1" source="EasPy3BFHtWuuKrXQRq3-3" target="EasPy3BFHtWuuKrXQRq3-2" edge="1">
          <mxGeometry relative="1" as="geometry" />
        </mxCell>
        <mxCell id="EasPy3BFHtWuuKrXQRq3-3" value="进店" style="rounded=0;whiteSpace=wrap;html=1;" parent="1" vertex="1">
          <mxGeometry x="30" y="100" width="120" height="60" as="geometry" />
        </mxCell>
        <mxCell id="EasPy3BFHtWuuKrXQRq3-8" style="edgeStyle=orthogonalEdgeStyle;rounded=0;orthogonalLoop=1;jettySize=auto;html=1;exitX=1;exitY=0.5;exitDx=0;exitDy=0;entryX=0;entryY=0.5;entryDx=0;entryDy=0;" parent="1" source="EasPy3BFHtWuuKrXQRq3-5" target="EasPy3BFHtWuuKrXQRq3-6" edge="1">
          <mxGeometry relative="1" as="geometry" />
        </mxCell>
        <mxCell id="EasPy3BFHtWuuKrXQRq3-5" value="人脸识别" style="rounded=0;whiteSpace=wrap;html=1;" parent="1" vertex="1">
          <mxGeometry x="420" y="100" width="30" height="60" as="geometry" />
        </mxCell>
        <mxCell id="EasPy3BFHtWuuKrXQRq3-14" style="edgeStyle=orthogonalEdgeStyle;rounded=0;orthogonalLoop=1;jettySize=auto;html=1;entryX=0.946;entryY=0.405;entryDx=0;entryDy=0;entryPerimeter=0;" parent="1" source="EasPy3BFHtWuuKrXQRq3-6" target="EasPy3BFHtWuuKrXQRq3-15" edge="1">
          <mxGeometry relative="1" as="geometry">
            <mxPoint x="350" y="280" as="targetPoint" />
            <Array as="points">
              <mxPoint x="530" y="280" />
              <mxPoint x="336" y="280" />
            </Array>
          </mxGeometry>
        </mxCell>
        <mxCell id="EasPy3BFHtWuuKrXQRq3-6" value="获取客人个人信息" style="rounded=0;whiteSpace=wrap;html=1;" parent="1" vertex="1">
          <mxGeometry x="520" y="100" width="30" height="60" as="geometry" />
        </mxCell>
        <mxCell id="EasPy3BFHtWuuKrXQRq3-10" value="&lt;p class=&quot;MsoNormal&quot;&gt;&lt;span style=&quot;mso-spacerun:&#39;yes&#39;;font-family:宋体;mso-ascii-font-family:Calibri;&lt;br/&gt;mso-hansi-font-family:Calibri;mso-bidi-font-family:&#39;Times New Roman&#39;;font-size:14.0000pt;&lt;br/&gt;mso-font-kerning:1.0000pt;&quot;&gt;门诊共济处方&lt;/span&gt;&lt;span style=&quot;mso-spacerun:&#39;yes&#39;;font-family:宋体;mso-ascii-font-family:Calibri;&lt;br/&gt;mso-hansi-font-family:Calibri;mso-bidi-font-family:&#39;Times New Roman&#39;;font-size:14.0000pt;&lt;br/&gt;mso-font-kerning:1.0000pt;&quot;&gt;购药&lt;/span&gt;&lt;/p&gt;" style="rounded=0;whiteSpace=wrap;html=1;" parent="1" vertex="1">
          <mxGeometry x="256.11" y="390" width="50" height="60" as="geometry" />
        </mxCell>
        <mxCell id="EasPy3BFHtWuuKrXQRq3-11" value="&lt;p class=&quot;MsoNormal&quot;&gt;&lt;span style=&quot;mso-spacerun:&#39;yes&#39;;font-family:宋体;mso-ascii-font-family:Calibri;&lt;br/&gt;mso-hansi-font-family:Calibri;mso-bidi-font-family:&#39;Times New Roman&#39;;font-size:14.0000pt;&lt;br/&gt;mso-font-kerning:1.0000pt;&quot;&gt;纸质处方&lt;/span&gt;&lt;span style=&quot;mso-spacerun:&#39;yes&#39;;font-family:宋体;mso-ascii-font-family:Calibri;&lt;br/&gt;mso-hansi-font-family:Calibri;mso-bidi-font-family:&#39;Times New Roman&#39;;font-size:14.0000pt;&lt;br/&gt;mso-font-kerning:1.0000pt;&quot;&gt;购药&lt;/span&gt;&lt;/p&gt;" style="rounded=0;whiteSpace=wrap;html=1;" parent="1" vertex="1">
          <mxGeometry x="170" y="390" width="40" height="60" as="geometry" />
        </mxCell>
        <mxCell id="EasPy3BFHtWuuKrXQRq3-13" value="&lt;p class=&quot;MsoNormal&quot;&gt;&lt;span style=&quot;mso-spacerun:&#39;yes&#39;;font-family:宋体;mso-ascii-font-family:Calibri;&lt;br/&gt;mso-hansi-font-family:Calibri;mso-bidi-font-family:&#39;Times New Roman&#39;;font-size:14.0000pt;&lt;br/&gt;mso-font-kerning:1.0000pt;&quot;&gt;无&lt;/span&gt;&lt;span style=&quot;mso-spacerun:&#39;yes&#39;;font-family:宋体;mso-ascii-font-family:Calibri;&lt;br/&gt;mso-hansi-font-family:Calibri;mso-bidi-font-family:&#39;Times New Roman&#39;;font-size:14.0000pt;&lt;br/&gt;mso-font-kerning:1.0000pt;&quot;&gt;需&lt;/span&gt;&lt;span style=&quot;mso-spacerun:&#39;yes&#39;;font-family:宋体;mso-ascii-font-family:Calibri;&lt;br/&gt;mso-hansi-font-family:Calibri;mso-bidi-font-family:&#39;Times New Roman&#39;;font-size:14.0000pt;&lt;br/&gt;mso-font-kerning:1.0000pt;&quot;&gt;处&lt;/span&gt;&lt;span style=&quot;mso-spacerun:&#39;yes&#39;;font-family:宋体;mso-ascii-font-family:Calibri;&lt;br/&gt;mso-hansi-font-family:Calibri;mso-bidi-font-family:&#39;Times New Roman&#39;;font-size:14.0000pt;&lt;br/&gt;mso-font-kerning:1.0000pt;&quot;&gt;方购药&lt;/span&gt;&lt;/p&gt;" style="rounded=0;whiteSpace=wrap;html=1;" parent="1" vertex="1">
          <mxGeometry x="350" y="390" width="40" height="60" as="geometry" />
        </mxCell>
        <mxCell id="EasPy3BFHtWuuKrXQRq3-15" value="&lt;span style=&quot;&quot;&gt;PC应用系统&lt;/span&gt;" style="sketch=0;aspect=fixed;pointerEvents=1;shadow=0;dashed=0;html=1;strokeColor=none;labelPosition=center;verticalLabelPosition=bottom;verticalAlign=top;align=center;fillColor=#00188D;shape=mxgraph.azure.computer" parent="1" vertex="1">
          <mxGeometry x="220" y="240" width="122.22" height="110" as="geometry" />
        </mxCell>
        <mxCell id="EasPy3BFHtWuuKrXQRq3-17" value="音视频" style="rounded=0;whiteSpace=wrap;html=1;" parent="1" vertex="1">
          <mxGeometry x="70" y="390" width="70" height="60" as="geometry" />
        </mxCell>
        <mxCell id="EasPy3BFHtWuuKrXQRq3-18" value="通讯平台" style="rounded=0;whiteSpace=wrap;html=1;" parent="1" vertex="1">
          <mxGeometry x="430" y="390" width="70" height="60" as="geometry" />
        </mxCell>
        <mxCell id="EasPy3BFHtWuuKrXQRq3-34" value="" style="group" parent="1" vertex="1" connectable="0">
          <mxGeometry x="414" y="530" width="190" height="269.45189727865085" as="geometry" />
        </mxCell>
        <mxCell id="EasPy3BFHtWuuKrXQRq3-35" value="" style="shape=image;verticalLabelPosition=bottom;labelBackgroundColor=default;verticalAlign=top;aspect=fixed;imageAspect=0;image=data:image/png,iVBORw0KGgoAAAANSUhEUgAAADcAAABOCAYAAACE9o5PAAAN4UlEQVR4nO1bXagkRxX+TlX3zNyf3dyb7G7g7oJZ86JiIGTjDxo0xAcDQYPP/hBQCIiE+GIeFQRFCDEE8hRfIghRA0okKCYqEogg+VPMRpIQNJINJu5NNrv3zvT0z/Gh6lSd6ume23c3Py5YcO/MVFefPt/5r9Pd9NYuM9SwPMXq6gqGjFOnTuErX/oyrLWD1neNpmnwviuuwH0/ug9ENOic6bxBVZvOY/PZDi7bXAMAZO2DA+kDAMbjMTY3N1FV1fCTWoOZsb62tq9zjDFA3X1M809tzWWYYmVlmObeq1FUwLzsPlYWO7h0o0dzMh54/EU8+PtnUMymg83lnRoNMzY2NnH7F67BtVduDT5vQXMjU+CWu36DJx+8F1nxBogMGNx3/rsyCEDdNDi7dgVuv+NbuO3mj/ZqrimneKOo8amv3b0I7td/eRm3ffVWbI230VAGZvbkETTIzA4wM4gMrCGA/HxbDkQAe/EsHHSUGU478Tj5Axyum2UZzPwtPL/6MTz20zvx/sMHO8FZKnHrPY/i5I/vWDTLX/zhGVyWbWPj0kMAEUajHKI4BoMbBgiwZNB4hlkANA0YTRCGlwSICNZaWJuBDHmmndBslnuhNCAiEAh1U7vzjIuIs+kMZ8/t4JIjV2L84rN46sXXesG9uj3F7x57HFvj1Q6f4wplUeDhXz34nvtaexgiHLvq06irHpsE0ACwTYE33zrXkQpAKKsKo9EIs9kMALC6tgoCORP1WiIQQAxmEQD7s92YlyWMIZw5cwbj8RhlWcJai9XVVWQ2g7MDb35ggAlEfs5rm/08ABB591Bu0j0IAGE6nXZHS0MOyNPPPI0T11wDYs8EOQ8hIuUPEZhjxvnPI4/8FsePH8fJkycxL+ZouMHp06dxw2duwFUfvsoLwvkiMYEJDpimTxTo81JArcGANbYnFbBLlNd98jrsTne7BZWYLCXzTV3jxhtvxHQ6xaFDh3DgwAEwM+q6DtUM63MJEaiiQx30O2JS7+gAx6ibBvAXW11Z8VYjJkL+uw9ook2OgLPMkV1fW8f62rrnjz0d8tpygUhZJcDuGMjTS+inEXT5YFRVhc4CrakrAOT44ehNQVnsohr7OO78j9xCubj/lLjohOJP8IIgn1LYYw/68UCC/4Ei6YHgynmxqDl3XeN4MAgOLdIlZTxeGepEv4g9GLCyXgdGMhuLJgSS93NPGUFyATKHXLo3NMBmebfPWWtTP5Prs2JCz4U1pMUfGe0aIfop3oWGBBONwx8bAg4MTCZdeQ5AXVfeHNxKkXIImsIUOV8MGvTA67pG0zSRkRD9AEMG1loQmSAPMWAOqcRf2Tuk87fAzXJg/pxOswQDTVUnF3ASjL7CXuoUrMYxVdc1qqoCGVcuEVFSCAjweTmHIYM8z4OGwnWCwASQ91iWCDZMc/OiCxwAY02QKClfcjFDRS4SZ2c0TYOqLDGeTDwQUVisD0FAZjNkWYaqrlHMCownY79Qgoiir74HOxrocyvjSXe0TAREiFWIRDSSAtnNN02Duq4xGo9Dkaxyu7JKrx5mWGsxGueYTmcxkAT68j0N/zQQHODod4Iry9L7lpMYiWeTVCIy5zQ2L+bBxJJAQOJFYnPOr9inAWMsRqPc7eRJ04/+BuFBmGuGmCXj3Llz3eDqug5h0AULQlpHSg4i1HWNfJQHYbiT5ESKecwLRSU+AC7hl2XpNKLmnYIpmHcAys3e2ACU1bwbnCEDZRseJ4U87esUgID5fO4qEuX8ASH55K8xS5xQ6/M8R1lVsXoJi5HkSQduT2wAgHE+6i6/QmRkFxkDG0lqco5k/J7L+Rphe/s0Dhw4gCeefAIbl2zg7Nmz2NndxcpkgrqucejQIbz00ks4ceIEjhw54gEQuGlc+hH6HAtrLdVBmvOb6M5o6QhwCM8spVgQnffGUDzETFzMZpjNZhiPxjh48CDyfIQ8zzEajVAUBdbX17G+vu43pl3Xdp8k9WsIKGLSw3yuaepucE3dQGq/tOoAAJVo2UVK8SkQY2vrKEDA0aNH+66MY8eOeePgkB9dYldmySqJk+wlh4Bz3FVV2RdQGr0udfRgsu73aDRCWbZ2xqw/WhFkkY8ALsTKjuUhejd7myUYKKumJ6CgTUBz6z2BnNlmWYaqqmJZFEI6u5VM7i9Q8Yh8mpjP5xiNRtAWweISajap1brsWQmBwcjRteVhgOs5UiqS8TzTqnohAiaTCYqiCKYm+zKWKCTmJZfw5l5VFZgbX6gzpHFEIUKLRDkICAMCCpiBcmcRHAMomgiMSWROwVoYsp9zXmPIYDwaoZjNwA2HEjiE/pCGOVQYZVnGqqZD/uxLMY4Z3eMclufebJq+NgOnK9WnJOKwMZZ1xmA8maCsStRlBZNZjPNxEAzgfLms3I4jz3PkWR4EIdoMytYpBwiqHLrlAbraDFpiSAHEfCrbIPEIh5aIMMpycOZKqtlsGrIwM2CtQWYtsixTNEl9SldNAOraUloSe4BT1Uxvg4iCJaja0s+w3iEA4X+sJMlpJs+CpwUhBPlIMxexbafog6IjxEYDDS9RuAsci+pbpZT/jOE67tWCIFj9SM6MRVtyIAgxrVmptT4hObBwBtCdCnQVomsviX7sG6ax2BUb5kA4NlQ50EzznjRhOURZ9utDe57VtSVWDyy/gB6zZH9TgtlER1b/oyZYYMTWHqXrtG8R6+aqDxfR/lvnqdoy0Mdws0Sf5rzGgj+D4rbfh2YK+Y5Cfg19QKg9HRNUryIGP1XxJ+wKfdJi0cf2BicrOsClu2xNK/Ua7QhJLdEzBE0ae0U3hDZ9mU1LkmGpwFHt1Bxz4/1AmGqxGQo9fVLMtZp5rSGw64mQF2Cax5TYCJCNrhYCK5/uHxJRuT8VILhwjILsc4/0PFw7nBUjSMyP48mB65gYfFDxQpFrOOvmjhyqGR82enxO+GknWCeR0KwKLiYNHgrlUowPXvOU1pbEMUiQ0GjVlkG8pGrLAalgic8hkbY2NU4+VXL2N0hIaU28MGZI7cMU1iVBsnWdGEikA8PDfG4ZOJ2RKABUDVZBrEXvGdVtAkkLpHIfQXxWhOMjc1gfz9U9zHALoi2JTgBLkrjce6dkQujGG4JJRGWvnVaQkYgSMhcJOaUfnTagG1Gk3EzbwbDRuZ+DTrU6EkvvUYqOiBjSwkuiqGyXAuAghXj/LVQAi/SVRFNB7zWWVShObS3Lp1gw67gvyoFEadJrRBmxYtSaDS13CViKGDEFESe3pi8oiZP64kFKoyhkHvLBg6CCiCCMjMSIq9QZpt2cKC6YrKcvQonlX9wjLB3KcrtrS/nUXVhECfswEO68xJuGiEHGAyXFnAgn1tMxarbX611QeIpin6O/thReFyS17CLtY/o3J0Kn1qd4VvLUQms9tSd7xzKf88djCFcWFiwulkexZOR0cfCnZGqBCWlduOoE0WTVoyGchO9hox8cebMEoufDmw1Hcwrmoyqah597E8+fLrBbVPj6Jy7Hy2fmKGvG2BJ2ywbXHl1zz4upIEMhXSC2MHRT+O0zy8B78giG3BCRviUtqgIA8MJ2gZWcsHVwhLNlg92iwfZuhZ054+RrsyQwaBeNTQqOQSfIcV+P2QBYprkkZiM6va9UYv9E+aWvJq4/fgBPvbKDzACHVzOs5QaZN60PXT6BlYpHBw1SqSDc/47A9g9tKTgK/Eoml/++iFK5OZZSDMLVW6u4emslgF3JooEE1/HAOJl0B1Igzg0WA9veY6lZxhyE6PByADqCxVpCHg4I/RD2f35dUp6y0KCkKIjzYqqhMnv7wAnbWpLOt9OwHtGqxKxOSO9LMhLpIP0aYscC/f2j6wUXNqRItzIA+TJMqkntfX6ZiqaOloTVKATy2kxrS6Evioz0z8cse32OEv4cc6y2Mfr+eGwjtH4IKFVbJhpVOTE8rONDtNSW55kFloNLSyP3JRSw+jZPmtnDd/brVZxIbty318vvKAJWD+gkYhk8es3y5w/8rOeIBk3pnPre8tJUZXuuR0td56e6XnCnX3/9vAj+L40B0fLiHb3giC5+3D1tBv9w28U4VMZYvG3suz2jfPQucjRsuFcB2gVEazBCK2IB3GRlAlCOhx56CLu7u/vqE76TYzab4Qff/T6QrQGm/329cQbYyRossPguz59eeA2f/+xNWP3P3zA5vOkfo3jvBzXA9NQpnLn6i3j24Xtx+OBq5zpmxnfufxT3f+OmRXAA8MNf/hn3fPubaP71V3BdJ0+71k3Hy0hC+O3BASIgM6TSPYPyCewHrsfdd92Jz33k/UvP394pcMv3ftINDgAef/51/PHpv7ub9j6J1g1QVXNw0/Pa4TKG+7+EjakrtQgNLIwxyGysUDY3N3Hzxz+I40fWh1+zD1zfePUfz+Hfr/xzYT7ps3iW9f3uqH0CGYI8/2yMhTHxLa0sz3DZ4aNY3bh8P2x1jiW1Zfc4WzQ4U3TLI3lrS1VcxpDLm+TeEyI2MGRgDMFQBsMGli0yZKgai2lN6Pao/Y19g2tXeQGQMiv3Z7xm3IbOgTEw1oDCdwtrTNCatQbGZv4trQsf+6dCEYBMkHHAjLEg44CQIVhjQcYD8cDac9Za9em/Z+f/avYFgSMY/yCau+tiDIGM05IwaK0N4Ix/jtJ6TQkAY8gB8WCjUMwFvXd+QeCyPMNoNHbMWOvNzTqTamvCv/nhgNggCCNma6IJGyPWQPHR4gsc+46WF9O4SKvjYeP/4C7W8V/a0iGKkaTu1QAAAABJRU5ErkJggg==;movable=1;resizable=1;rotatable=1;deletable=1;editable=1;connectable=1;" parent="EasPy3BFHtWuuKrXQRq3-34" vertex="1">
          <mxGeometry width="162.18" height="230" as="geometry" />
        </mxCell>
        <mxCell id="EasPy3BFHtWuuKrXQRq3-36" value="&lt;p class=&quot;MsoNormal&quot;&gt;&lt;span&gt;人脸核身/获取用户信息&lt;/span&gt;&lt;/p&gt;" style="rounded=0;whiteSpace=wrap;html=1;fillColor=#ffe6cc;strokeColor=#d79b00;movable=1;resizable=1;rotatable=1;deletable=1;editable=1;connectable=1;" parent="EasPy3BFHtWuuKrXQRq3-34" vertex="1">
          <mxGeometry x="43.69" y="41.62" width="76.31" height="78.38" as="geometry" />
        </mxCell>
        <mxCell id="EasPy3BFHtWuuKrXQRq3-59" value="支付宝盒子" style="text;html=1;strokeColor=none;fillColor=none;align=center;verticalAlign=middle;whiteSpace=wrap;rounded=0;" parent="EasPy3BFHtWuuKrXQRq3-34" vertex="1">
          <mxGeometry x="31.85" y="238.45000000000005" width="100" height="31" as="geometry" />
        </mxCell>
        <mxCell id="EasPy3BFHtWuuKrXQRq3-33" value="" style="group" parent="1" vertex="1" connectable="0">
          <mxGeometry x="110" y="530" width="190" height="270" as="geometry" />
        </mxCell>
        <mxCell id="EasPy3BFHtWuuKrXQRq3-20" value="" style="shape=image;verticalLabelPosition=bottom;labelBackgroundColor=default;verticalAlign=top;aspect=fixed;imageAspect=0;image=data:image/png,iVBORw0KGgoAAAANSUhEUgAAADcAAABOCAYAAACE9o5PAAAN4UlEQVR4nO1bXagkRxX+TlX3zNyf3dyb7G7g7oJZ86JiIGTjDxo0xAcDQYPP/hBQCIiE+GIeFQRFCDEE8hRfIghRA0okKCYqEogg+VPMRpIQNJINJu5NNrv3zvT0z/Gh6lSd6ume23c3Py5YcO/MVFefPt/5r9Pd9NYuM9SwPMXq6gqGjFOnTuErX/oyrLWD1neNpmnwviuuwH0/ug9ENOic6bxBVZvOY/PZDi7bXAMAZO2DA+kDAMbjMTY3N1FV1fCTWoOZsb62tq9zjDFA3X1M809tzWWYYmVlmObeq1FUwLzsPlYWO7h0o0dzMh54/EU8+PtnUMymg83lnRoNMzY2NnH7F67BtVduDT5vQXMjU+CWu36DJx+8F1nxBogMGNx3/rsyCEDdNDi7dgVuv+NbuO3mj/ZqrimneKOo8amv3b0I7td/eRm3ffVWbI230VAGZvbkETTIzA4wM4gMrCGA/HxbDkQAe/EsHHSUGU478Tj5Axyum2UZzPwtPL/6MTz20zvx/sMHO8FZKnHrPY/i5I/vWDTLX/zhGVyWbWPj0kMAEUajHKI4BoMbBgiwZNB4hlkANA0YTRCGlwSICNZaWJuBDHmmndBslnuhNCAiEAh1U7vzjIuIs+kMZ8/t4JIjV2L84rN46sXXesG9uj3F7x57HFvj1Q6f4wplUeDhXz34nvtaexgiHLvq06irHpsE0ACwTYE33zrXkQpAKKsKo9EIs9kMALC6tgoCORP1WiIQQAxmEQD7s92YlyWMIZw5cwbj8RhlWcJai9XVVWQ2g7MDb35ggAlEfs5rm/08ABB591Bu0j0IAGE6nXZHS0MOyNPPPI0T11wDYs8EOQ8hIuUPEZhjxvnPI4/8FsePH8fJkycxL+ZouMHp06dxw2duwFUfvsoLwvkiMYEJDpimTxTo81JArcGANbYnFbBLlNd98jrsTne7BZWYLCXzTV3jxhtvxHQ6xaFDh3DgwAEwM+q6DtUM63MJEaiiQx30O2JS7+gAx6ibBvAXW11Z8VYjJkL+uw9ook2OgLPMkV1fW8f62rrnjz0d8tpygUhZJcDuGMjTS+inEXT5YFRVhc4CrakrAOT44ehNQVnsohr7OO78j9xCubj/lLjohOJP8IIgn1LYYw/68UCC/4Ei6YHgynmxqDl3XeN4MAgOLdIlZTxeGepEv4g9GLCyXgdGMhuLJgSS93NPGUFyATKHXLo3NMBmebfPWWtTP5Prs2JCz4U1pMUfGe0aIfop3oWGBBONwx8bAg4MTCZdeQ5AXVfeHNxKkXIImsIUOV8MGvTA67pG0zSRkRD9AEMG1loQmSAPMWAOqcRf2Tuk87fAzXJg/pxOswQDTVUnF3ASjL7CXuoUrMYxVdc1qqoCGVcuEVFSCAjweTmHIYM8z4OGwnWCwASQ91iWCDZMc/OiCxwAY02QKClfcjFDRS4SZ2c0TYOqLDGeTDwQUVisD0FAZjNkWYaqrlHMCownY79Qgoiir74HOxrocyvjSXe0TAREiFWIRDSSAtnNN02Duq4xGo9Dkaxyu7JKrx5mWGsxGueYTmcxkAT68j0N/zQQHODod4Iry9L7lpMYiWeTVCIy5zQ2L+bBxJJAQOJFYnPOr9inAWMsRqPc7eRJ04/+BuFBmGuGmCXj3Llz3eDqug5h0AULQlpHSg4i1HWNfJQHYbiT5ESKecwLRSU+AC7hl2XpNKLmnYIpmHcAys3e2ACU1bwbnCEDZRseJ4U87esUgID5fO4qEuX8ASH55K8xS5xQ6/M8R1lVsXoJi5HkSQduT2wAgHE+6i6/QmRkFxkDG0lqco5k/J7L+Rphe/s0Dhw4gCeefAIbl2zg7Nmz2NndxcpkgrqucejQIbz00ks4ceIEjhw54gEQuGlc+hH6HAtrLdVBmvOb6M5o6QhwCM8spVgQnffGUDzETFzMZpjNZhiPxjh48CDyfIQ8zzEajVAUBdbX17G+vu43pl3Xdp8k9WsIKGLSw3yuaepucE3dQGq/tOoAAJVo2UVK8SkQY2vrKEDA0aNH+66MY8eOeePgkB9dYldmySqJk+wlh4Bz3FVV2RdQGr0udfRgsu73aDRCWbZ2xqw/WhFkkY8ALsTKjuUhejd7myUYKKumJ6CgTUBz6z2BnNlmWYaqqmJZFEI6u5VM7i9Q8Yh8mpjP5xiNRtAWweISajap1brsWQmBwcjRteVhgOs5UiqS8TzTqnohAiaTCYqiCKYm+zKWKCTmJZfw5l5VFZgbX6gzpHFEIUKLRDkICAMCCpiBcmcRHAMomgiMSWROwVoYsp9zXmPIYDwaoZjNwA2HEjiE/pCGOVQYZVnGqqZD/uxLMY4Z3eMclufebJq+NgOnK9WnJOKwMZZ1xmA8maCsStRlBZNZjPNxEAzgfLms3I4jz3PkWR4EIdoMytYpBwiqHLrlAbraDFpiSAHEfCrbIPEIh5aIMMpycOZKqtlsGrIwM2CtQWYtsixTNEl9SldNAOraUloSe4BT1Uxvg4iCJaja0s+w3iEA4X+sJMlpJs+CpwUhBPlIMxexbafog6IjxEYDDS9RuAsci+pbpZT/jOE67tWCIFj9SM6MRVtyIAgxrVmptT4hObBwBtCdCnQVomsviX7sG6ax2BUb5kA4NlQ50EzznjRhOURZ9utDe57VtSVWDyy/gB6zZH9TgtlER1b/oyZYYMTWHqXrtG8R6+aqDxfR/lvnqdoy0Mdws0Sf5rzGgj+D4rbfh2YK+Y5Cfg19QKg9HRNUryIGP1XxJ+wKfdJi0cf2BicrOsClu2xNK/Ua7QhJLdEzBE0ae0U3hDZ9mU1LkmGpwFHt1Bxz4/1AmGqxGQo9fVLMtZp5rSGw64mQF2Cax5TYCJCNrhYCK5/uHxJRuT8VILhwjILsc4/0PFw7nBUjSMyP48mB65gYfFDxQpFrOOvmjhyqGR82enxO+GknWCeR0KwKLiYNHgrlUowPXvOU1pbEMUiQ0GjVlkG8pGrLAalgic8hkbY2NU4+VXL2N0hIaU28MGZI7cMU1iVBsnWdGEikA8PDfG4ZOJ2RKABUDVZBrEXvGdVtAkkLpHIfQXxWhOMjc1gfz9U9zHALoi2JTgBLkrjce6dkQujGG4JJRGWvnVaQkYgSMhcJOaUfnTagG1Gk3EzbwbDRuZ+DTrU6EkvvUYqOiBjSwkuiqGyXAuAghXj/LVQAi/SVRFNB7zWWVShObS3Lp1gw67gvyoFEadJrRBmxYtSaDS13CViKGDEFESe3pi8oiZP64kFKoyhkHvLBg6CCiCCMjMSIq9QZpt2cKC6YrKcvQonlX9wjLB3KcrtrS/nUXVhECfswEO68xJuGiEHGAyXFnAgn1tMxarbX611QeIpin6O/thReFyS17CLtY/o3J0Kn1qd4VvLUQms9tSd7xzKf88djCFcWFiwulkexZOR0cfCnZGqBCWlduOoE0WTVoyGchO9hox8cebMEoufDmw1Hcwrmoyqah597E8+fLrBbVPj6Jy7Hy2fmKGvG2BJ2ywbXHl1zz4upIEMhXSC2MHRT+O0zy8B78giG3BCRviUtqgIA8MJ2gZWcsHVwhLNlg92iwfZuhZ054+RrsyQwaBeNTQqOQSfIcV+P2QBYprkkZiM6va9UYv9E+aWvJq4/fgBPvbKDzACHVzOs5QaZN60PXT6BlYpHBw1SqSDc/47A9g9tKTgK/Eoml/++iFK5OZZSDMLVW6u4emslgF3JooEE1/HAOJl0B1Igzg0WA9veY6lZxhyE6PByADqCxVpCHg4I/RD2f35dUp6y0KCkKIjzYqqhMnv7wAnbWpLOt9OwHtGqxKxOSO9LMhLpIP0aYscC/f2j6wUXNqRItzIA+TJMqkntfX6ZiqaOloTVKATy2kxrS6Evioz0z8cse32OEv4cc6y2Mfr+eGwjtH4IKFVbJhpVOTE8rONDtNSW55kFloNLSyP3JRSw+jZPmtnDd/brVZxIbty318vvKAJWD+gkYhk8es3y5w/8rOeIBk3pnPre8tJUZXuuR0td56e6XnCnX3/9vAj+L40B0fLiHb3giC5+3D1tBv9w28U4VMZYvG3suz2jfPQucjRsuFcB2gVEazBCK2IB3GRlAlCOhx56CLu7u/vqE76TYzab4Qff/T6QrQGm/329cQbYyRossPguz59eeA2f/+xNWP3P3zA5vOkfo3jvBzXA9NQpnLn6i3j24Xtx+OBq5zpmxnfufxT3f+OmRXAA8MNf/hn3fPubaP71V3BdJ0+71k3Hy0hC+O3BASIgM6TSPYPyCewHrsfdd92Jz33k/UvP394pcMv3ftINDgAef/51/PHpv7ub9j6J1g1QVXNw0/Pa4TKG+7+EjakrtQgNLIwxyGysUDY3N3Hzxz+I40fWh1+zD1zfePUfz+Hfr/xzYT7ps3iW9f3uqH0CGYI8/2yMhTHxLa0sz3DZ4aNY3bh8P2x1jiW1Zfc4WzQ4U3TLI3lrS1VcxpDLm+TeEyI2MGRgDMFQBsMGli0yZKgai2lN6Pao/Y19g2tXeQGQMiv3Z7xm3IbOgTEw1oDCdwtrTNCatQbGZv4trQsf+6dCEYBMkHHAjLEg44CQIVhjQcYD8cDac9Za9em/Z+f/avYFgSMY/yCau+tiDIGM05IwaK0N4Ix/jtJ6TQkAY8gB8WCjUMwFvXd+QeCyPMNoNHbMWOvNzTqTamvCv/nhgNggCCNma6IJGyPWQPHR4gsc+46WF9O4SKvjYeP/4C7W8V/a0iGKkaTu1QAAAABJRU5ErkJggg==;movable=1;resizable=1;rotatable=1;deletable=1;editable=1;connectable=1;" parent="EasPy3BFHtWuuKrXQRq3-33" vertex="1">
          <mxGeometry width="162.18" height="230" as="geometry" />
        </mxCell>
        <mxCell id="EasPy3BFHtWuuKrXQRq3-21" value="&lt;p class=&quot;MsoNormal&quot;&gt;&lt;span style=&quot;mso-spacerun:&#39;yes&#39;;font-family:宋体;mso-ascii-font-family:Calibri;&lt;br/&gt;mso-hansi-font-family:Calibri;mso-bidi-font-family:&#39;Times New Roman&#39;;font-size:14.0000pt;&lt;br/&gt;mso-font-kerning:1.0000pt;&quot;&gt;处方校验服务平台&lt;/span&gt;&lt;/p&gt;" style="rounded=0;whiteSpace=wrap;html=1;fillColor=#ffe6cc;strokeColor=#d79b00;movable=1;resizable=1;rotatable=1;deletable=1;editable=1;connectable=1;" parent="EasPy3BFHtWuuKrXQRq3-33" vertex="1">
          <mxGeometry x="43.694902261402845" y="41.62162162162162" width="80.10732081257187" height="45.40540540540541" as="geometry" />
        </mxCell>
        <mxCell id="EasPy3BFHtWuuKrXQRq3-25" value="&lt;p class=&quot;MsoNormal&quot;&gt;&lt;span style=&quot;mso-spacerun:&#39;yes&#39;;font-family:宋体;mso-ascii-font-family:Calibri;&lt;br/&gt;mso-hansi-font-family:Calibri;mso-bidi-font-family:&#39;Times New Roman&#39;;font-size:14.0000pt;&lt;br/&gt;mso-font-kerning:1.0000pt;&quot;&gt;通讯平台&lt;/span&gt;&lt;/p&gt;" style="rounded=0;whiteSpace=wrap;html=1;fillColor=#d5e8d4;strokeColor=#82b366;movable=0;resizable=0;rotatable=0;deletable=0;editable=0;connectable=0;" parent="EasPy3BFHtWuuKrXQRq3-33" vertex="1">
          <mxGeometry x="43.694902261402845" y="113.51351351351352" width="80.10732081257187" height="45.40540540540541" as="geometry" />
        </mxCell>
        <mxCell id="EasPy3BFHtWuuKrXQRq3-58" value="支付宝盒子" style="text;html=1;strokeColor=none;fillColor=none;align=center;verticalAlign=middle;whiteSpace=wrap;rounded=0;" parent="EasPy3BFHtWuuKrXQRq3-33" vertex="1">
          <mxGeometry x="30" y="239" width="100" height="31" as="geometry" />
        </mxCell>
        <mxCell id="EasPy3BFHtWuuKrXQRq3-38" style="edgeStyle=orthogonalEdgeStyle;rounded=0;orthogonalLoop=1;jettySize=auto;html=1;" parent="1" source="EasPy3BFHtWuuKrXQRq3-21" target="EasPy3BFHtWuuKrXQRq3-35" edge="1">
          <mxGeometry relative="1" as="geometry" />
        </mxCell>
        <mxCell id="EasPy3BFHtWuuKrXQRq3-39" value="" style="group" parent="1" vertex="1" connectable="0">
          <mxGeometry x="657" y="540" width="170" height="200" as="geometry" />
        </mxCell>
        <mxCell id="EasPy3BFHtWuuKrXQRq3-40" value="" style="shape=image;verticalLabelPosition=bottom;labelBackgroundColor=default;verticalAlign=top;aspect=fixed;imageAspect=0;image=data:image/png,iVBORw0KGgoAAAANSUhEUgAAADcAAABOCAYAAACE9o5PAAAN4UlEQVR4nO1bXagkRxX+TlX3zNyf3dyb7G7g7oJZ86JiIGTjDxo0xAcDQYPP/hBQCIiE+GIeFQRFCDEE8hRfIghRA0okKCYqEogg+VPMRpIQNJINJu5NNrv3zvT0z/Gh6lSd6ume23c3Py5YcO/MVFefPt/5r9Pd9NYuM9SwPMXq6gqGjFOnTuErX/oyrLWD1neNpmnwviuuwH0/ug9ENOic6bxBVZvOY/PZDi7bXAMAZO2DA+kDAMbjMTY3N1FV1fCTWoOZsb62tq9zjDFA3X1M809tzWWYYmVlmObeq1FUwLzsPlYWO7h0o0dzMh54/EU8+PtnUMymg83lnRoNMzY2NnH7F67BtVduDT5vQXMjU+CWu36DJx+8F1nxBogMGNx3/rsyCEDdNDi7dgVuv+NbuO3mj/ZqrimneKOo8amv3b0I7td/eRm3ffVWbI230VAGZvbkETTIzA4wM4gMrCGA/HxbDkQAe/EsHHSUGU478Tj5Axyum2UZzPwtPL/6MTz20zvx/sMHO8FZKnHrPY/i5I/vWDTLX/zhGVyWbWPj0kMAEUajHKI4BoMbBgiwZNB4hlkANA0YTRCGlwSICNZaWJuBDHmmndBslnuhNCAiEAh1U7vzjIuIs+kMZ8/t4JIjV2L84rN46sXXesG9uj3F7x57HFvj1Q6f4wplUeDhXz34nvtaexgiHLvq06irHpsE0ACwTYE33zrXkQpAKKsKo9EIs9kMALC6tgoCORP1WiIQQAxmEQD7s92YlyWMIZw5cwbj8RhlWcJai9XVVWQ2g7MDb35ggAlEfs5rm/08ABB591Bu0j0IAGE6nXZHS0MOyNPPPI0T11wDYs8EOQ8hIuUPEZhjxvnPI4/8FsePH8fJkycxL+ZouMHp06dxw2duwFUfvsoLwvkiMYEJDpimTxTo81JArcGANbYnFbBLlNd98jrsTne7BZWYLCXzTV3jxhtvxHQ6xaFDh3DgwAEwM+q6DtUM63MJEaiiQx30O2JS7+gAx6ibBvAXW11Z8VYjJkL+uw9ook2OgLPMkV1fW8f62rrnjz0d8tpygUhZJcDuGMjTS+inEXT5YFRVhc4CrakrAOT44ehNQVnsohr7OO78j9xCubj/lLjohOJP8IIgn1LYYw/68UCC/4Ei6YHgynmxqDl3XeN4MAgOLdIlZTxeGepEv4g9GLCyXgdGMhuLJgSS93NPGUFyATKHXLo3NMBmebfPWWtTP5Prs2JCz4U1pMUfGe0aIfop3oWGBBONwx8bAg4MTCZdeQ5AXVfeHNxKkXIImsIUOV8MGvTA67pG0zSRkRD9AEMG1loQmSAPMWAOqcRf2Tuk87fAzXJg/pxOswQDTVUnF3ASjL7CXuoUrMYxVdc1qqoCGVcuEVFSCAjweTmHIYM8z4OGwnWCwASQ91iWCDZMc/OiCxwAY02QKClfcjFDRS4SZ2c0TYOqLDGeTDwQUVisD0FAZjNkWYaqrlHMCownY79Qgoiir74HOxrocyvjSXe0TAREiFWIRDSSAtnNN02Duq4xGo9Dkaxyu7JKrx5mWGsxGueYTmcxkAT68j0N/zQQHODod4Iry9L7lpMYiWeTVCIy5zQ2L+bBxJJAQOJFYnPOr9inAWMsRqPc7eRJ04/+BuFBmGuGmCXj3Llz3eDqug5h0AULQlpHSg4i1HWNfJQHYbiT5ESKecwLRSU+AC7hl2XpNKLmnYIpmHcAys3e2ACU1bwbnCEDZRseJ4U87esUgID5fO4qEuX8ASH55K8xS5xQ6/M8R1lVsXoJi5HkSQduT2wAgHE+6i6/QmRkFxkDG0lqco5k/J7L+Rphe/s0Dhw4gCeefAIbl2zg7Nmz2NndxcpkgrqucejQIbz00ks4ceIEjhw54gEQuGlc+hH6HAtrLdVBmvOb6M5o6QhwCM8spVgQnffGUDzETFzMZpjNZhiPxjh48CDyfIQ8zzEajVAUBdbX17G+vu43pl3Xdp8k9WsIKGLSw3yuaepucE3dQGq/tOoAAJVo2UVK8SkQY2vrKEDA0aNH+66MY8eOeePgkB9dYldmySqJk+wlh4Bz3FVV2RdQGr0udfRgsu73aDRCWbZ2xqw/WhFkkY8ALsTKjuUhejd7myUYKKumJ6CgTUBz6z2BnNlmWYaqqmJZFEI6u5VM7i9Q8Yh8mpjP5xiNRtAWweISajap1brsWQmBwcjRteVhgOs5UiqS8TzTqnohAiaTCYqiCKYm+zKWKCTmJZfw5l5VFZgbX6gzpHFEIUKLRDkICAMCCpiBcmcRHAMomgiMSWROwVoYsp9zXmPIYDwaoZjNwA2HEjiE/pCGOVQYZVnGqqZD/uxLMY4Z3eMclufebJq+NgOnK9WnJOKwMZZ1xmA8maCsStRlBZNZjPNxEAzgfLms3I4jz3PkWR4EIdoMytYpBwiqHLrlAbraDFpiSAHEfCrbIPEIh5aIMMpycOZKqtlsGrIwM2CtQWYtsixTNEl9SldNAOraUloSe4BT1Uxvg4iCJaja0s+w3iEA4X+sJMlpJs+CpwUhBPlIMxexbafog6IjxEYDDS9RuAsci+pbpZT/jOE67tWCIFj9SM6MRVtyIAgxrVmptT4hObBwBtCdCnQVomsviX7sG6ax2BUb5kA4NlQ50EzznjRhOURZ9utDe57VtSVWDyy/gB6zZH9TgtlER1b/oyZYYMTWHqXrtG8R6+aqDxfR/lvnqdoy0Mdws0Sf5rzGgj+D4rbfh2YK+Y5Cfg19QKg9HRNUryIGP1XxJ+wKfdJi0cf2BicrOsClu2xNK/Ua7QhJLdEzBE0ae0U3hDZ9mU1LkmGpwFHt1Bxz4/1AmGqxGQo9fVLMtZp5rSGw64mQF2Cax5TYCJCNrhYCK5/uHxJRuT8VILhwjILsc4/0PFw7nBUjSMyP48mB65gYfFDxQpFrOOvmjhyqGR82enxO+GknWCeR0KwKLiYNHgrlUowPXvOU1pbEMUiQ0GjVlkG8pGrLAalgic8hkbY2NU4+VXL2N0hIaU28MGZI7cMU1iVBsnWdGEikA8PDfG4ZOJ2RKABUDVZBrEXvGdVtAkkLpHIfQXxWhOMjc1gfz9U9zHALoi2JTgBLkrjce6dkQujGG4JJRGWvnVaQkYgSMhcJOaUfnTagG1Gk3EzbwbDRuZ+DTrU6EkvvUYqOiBjSwkuiqGyXAuAghXj/LVQAi/SVRFNB7zWWVShObS3Lp1gw67gvyoFEadJrRBmxYtSaDS13CViKGDEFESe3pi8oiZP64kFKoyhkHvLBg6CCiCCMjMSIq9QZpt2cKC6YrKcvQonlX9wjLB3KcrtrS/nUXVhECfswEO68xJuGiEHGAyXFnAgn1tMxarbX611QeIpin6O/thReFyS17CLtY/o3J0Kn1qd4VvLUQms9tSd7xzKf88djCFcWFiwulkexZOR0cfCnZGqBCWlduOoE0WTVoyGchO9hox8cebMEoufDmw1Hcwrmoyqah597E8+fLrBbVPj6Jy7Hy2fmKGvG2BJ2ywbXHl1zz4upIEMhXSC2MHRT+O0zy8B78giG3BCRviUtqgIA8MJ2gZWcsHVwhLNlg92iwfZuhZ054+RrsyQwaBeNTQqOQSfIcV+P2QBYprkkZiM6va9UYv9E+aWvJq4/fgBPvbKDzACHVzOs5QaZN60PXT6BlYpHBw1SqSDc/47A9g9tKTgK/Eoml/++iFK5OZZSDMLVW6u4emslgF3JooEE1/HAOJl0B1Igzg0WA9veY6lZxhyE6PByADqCxVpCHg4I/RD2f35dUp6y0KCkKIjzYqqhMnv7wAnbWpLOt9OwHtGqxKxOSO9LMhLpIP0aYscC/f2j6wUXNqRItzIA+TJMqkntfX6ZiqaOloTVKATy2kxrS6Evioz0z8cse32OEv4cc6y2Mfr+eGwjtH4IKFVbJhpVOTE8rONDtNSW55kFloNLSyP3JRSw+jZPmtnDd/brVZxIbty318vvKAJWD+gkYhk8es3y5w/8rOeIBk3pnPre8tJUZXuuR0td56e6XnCnX3/9vAj+L40B0fLiHb3giC5+3D1tBv9w28U4VMZYvG3suz2jfPQucjRsuFcB2gVEazBCK2IB3GRlAlCOhx56CLu7u/vqE76TYzab4Qff/T6QrQGm/329cQbYyRossPguz59eeA2f/+xNWP3P3zA5vOkfo3jvBzXA9NQpnLn6i3j24Xtx+OBq5zpmxnfufxT3f+OmRXAA8MNf/hn3fPubaP71V3BdJ0+71k3Hy0hC+O3BASIgM6TSPYPyCewHrsfdd92Jz33k/UvP394pcMv3ftINDgAef/51/PHpv7ub9j6J1g1QVXNw0/Pa4TKG+7+EjakrtQgNLIwxyGysUDY3N3Hzxz+I40fWh1+zD1zfePUfz+Hfr/xzYT7ps3iW9f3uqH0CGYI8/2yMhTHxLa0sz3DZ4aNY3bh8P2x1jiW1Zfc4WzQ4U3TLI3lrS1VcxpDLm+TeEyI2MGRgDMFQBsMGli0yZKgai2lN6Pao/Y19g2tXeQGQMiv3Z7xm3IbOgTEw1oDCdwtrTNCatQbGZv4trQsf+6dCEYBMkHHAjLEg44CQIVhjQcYD8cDac9Za9em/Z+f/avYFgSMY/yCau+tiDIGM05IwaK0N4Ix/jtJ6TQkAY8gB8WCjUMwFvXd+QeCyPMNoNHbMWOvNzTqTamvCv/nhgNggCCNma6IJGyPWQPHR4gsc+46WF9O4SKvjYeP/4C7W8V/a0iGKkaTu1QAAAABJRU5ErkJggg==;movable=1;resizable=1;rotatable=1;deletable=1;editable=1;connectable=1;" parent="EasPy3BFHtWuuKrXQRq3-39" vertex="1">
          <mxGeometry width="141.027027027027" height="200" as="geometry" />
        </mxCell>
        <mxCell id="EasPy3BFHtWuuKrXQRq3-41" value="&lt;p class=&quot;MsoNormal&quot;&gt;&lt;span&gt;视频问诊&lt;/span&gt;&lt;/p&gt;" style="rounded=0;whiteSpace=wrap;html=1;fillColor=#ffe6cc;strokeColor=#d79b00;movable=1;resizable=1;rotatable=1;deletable=1;editable=1;connectable=1;" parent="EasPy3BFHtWuuKrXQRq3-39" vertex="1">
          <mxGeometry x="30" y="30.89" width="70" height="39.11" as="geometry" />
        </mxCell>
        <mxCell id="EasPy3BFHtWuuKrXQRq3-45" value="&lt;p class=&quot;MsoNormal&quot;&gt;&lt;span&gt;处方购药&lt;/span&gt;&lt;/p&gt;" style="rounded=0;whiteSpace=wrap;html=1;fillColor=#ffe6cc;strokeColor=#d79b00;movable=1;resizable=1;rotatable=1;deletable=1;editable=1;connectable=1;" parent="EasPy3BFHtWuuKrXQRq3-39" vertex="1">
          <mxGeometry x="30" y="90" width="70" height="39.11" as="geometry" />
        </mxCell>
        <mxCell id="EasPy3BFHtWuuKrXQRq3-44" value="通过" style="text;html=1;align=center;verticalAlign=middle;resizable=0;points=[];autosize=1;strokeColor=none;fillColor=none;" parent="1" vertex="1">
          <mxGeometry x="600" y="620" width="50" height="30" as="geometry" />
        </mxCell>
        <mxCell id="EasPy3BFHtWuuKrXQRq3-46" value="" style="edgeStyle=orthogonalEdgeStyle;rounded=0;orthogonalLoop=1;jettySize=auto;html=1;entryX=0;entryY=0.5;entryDx=0;entryDy=0;" parent="1" source="EasPy3BFHtWuuKrXQRq3-35" target="EasPy3BFHtWuuKrXQRq3-40" edge="1">
          <mxGeometry relative="1" as="geometry" />
        </mxCell>
        <mxCell id="EasPy3BFHtWuuKrXQRq3-47" value="" style="shape=cylinder3;whiteSpace=wrap;html=1;boundedLbl=1;backgroundOutline=1;size=15;" parent="1" vertex="1">
          <mxGeometry x="604" y="890" width="60" height="80" as="geometry" />
        </mxCell>
        <mxCell id="EasPy3BFHtWuuKrXQRq3-56" style="edgeStyle=orthogonalEdgeStyle;rounded=0;orthogonalLoop=1;jettySize=auto;html=1;entryX=0;entryY=0.5;entryDx=0;entryDy=0;entryPerimeter=0;" parent="1" source="EasPy3BFHtWuuKrXQRq3-49" target="EasPy3BFHtWuuKrXQRq3-47" edge="1">
          <mxGeometry relative="1" as="geometry" />
        </mxCell>
        <mxCell id="EasPy3BFHtWuuKrXQRq3-49" value="管理PC" style="verticalLabelPosition=bottom;html=1;verticalAlign=top;align=center;strokeColor=none;fillColor=#00BEF2;shape=mxgraph.azure.computer;pointerEvents=1;" parent="1" vertex="1">
          <mxGeometry x="160" y="850" width="220" height="220" as="geometry" />
        </mxCell>
        <mxCell id="EasPy3BFHtWuuKrXQRq3-50" value="药店管理" style="text;html=1;strokeColor=none;fillColor=none;align=center;verticalAlign=middle;whiteSpace=wrap;rounded=0;" parent="1" vertex="1">
          <mxGeometry x="190" y="880" width="60" height="30" as="geometry" />
        </mxCell>
        <mxCell id="EasPy3BFHtWuuKrXQRq3-51" value="药师管理" style="text;html=1;strokeColor=none;fillColor=none;align=center;verticalAlign=middle;whiteSpace=wrap;rounded=0;" parent="1" vertex="1">
          <mxGeometry x="280" y="880" width="60" height="30" as="geometry" />
        </mxCell>
        <mxCell id="EasPy3BFHtWuuKrXQRq3-52" value="处方管理" style="text;html=1;strokeColor=none;fillColor=none;align=center;verticalAlign=middle;whiteSpace=wrap;rounded=0;" parent="1" vertex="1">
          <mxGeometry x="190" y="920" width="60" height="30" as="geometry" />
        </mxCell>
        <mxCell id="EasPy3BFHtWuuKrXQRq3-53" value="医师管理" style="text;html=1;strokeColor=none;fillColor=none;align=center;verticalAlign=middle;whiteSpace=wrap;rounded=0;" parent="1" vertex="1">
          <mxGeometry x="282.22" y="920" width="60" height="30" as="geometry" />
        </mxCell>
        <mxCell id="EasPy3BFHtWuuKrXQRq3-62" style="edgeStyle=orthogonalEdgeStyle;rounded=0;orthogonalLoop=1;jettySize=auto;html=1;exitX=0.5;exitY=1;exitDx=0;exitDy=0;entryX=1;entryY=0;entryDx=0;entryDy=52.5;entryPerimeter=0;" parent="1" source="EasPy3BFHtWuuKrXQRq3-40" target="EasPy3BFHtWuuKrXQRq3-47" edge="1">
          <mxGeometry relative="1" as="geometry" />
        </mxCell>
        <mxCell id="EasPy3BFHtWuuKrXQRq3-63" value="支付宝盒子" style="text;html=1;strokeColor=none;fillColor=none;align=center;verticalAlign=middle;whiteSpace=wrap;rounded=0;" parent="1" vertex="1">
          <mxGeometry x="620" y="740" width="100" height="31" as="geometry" />
        </mxCell>
      </root>
    </mxGraphModel>
  </diagram>
</mxfile>
